<svg width="218" height="57" viewBox="0 0 218 57" fill="none" xmlns="http://www.w3.org/2000/svg">
<path d="M18.5952 12.9418H13.9787C13.9171 12.4678 13.791 12.04 13.6001 11.6584C13.4093 11.2768 13.157 10.9505 12.843 10.6797C12.5291 10.4089 12.1567 10.2027 11.7259 10.0611C11.3011 9.91335 10.8303 9.83949 10.3132 9.83949C9.39607 9.83949 8.60511 10.0642 7.94034 10.5135C7.28172 10.9628 6.77391 11.6122 6.4169 12.4616C6.06605 13.3111 5.89062 14.339 5.89062 15.5455C5.89062 16.8011 6.06913 17.8537 6.42614 18.7031C6.7893 19.5464 7.29711 20.1835 7.94957 20.6143C8.60819 21.0391 9.38684 21.2514 10.2855 21.2514C10.7902 21.2514 11.2488 21.1868 11.6612 21.0575C12.0798 20.9283 12.446 20.7405 12.7599 20.4943C13.08 20.242 13.3416 19.9373 13.5447 19.5803C13.754 19.2171 13.8987 18.8078 13.9787 18.3523L18.5952 18.38C18.5152 19.2171 18.272 20.0419 17.8658 20.8544C17.4657 21.6669 16.9148 22.4086 16.2131 23.0795C15.5114 23.7443 14.6558 24.2737 13.6463 24.6676C12.643 25.0616 11.492 25.2585 10.1932 25.2585C8.48201 25.2585 6.94934 24.883 5.59517 24.1321C4.24716 23.375 3.18229 22.2732 2.40057 20.8267C1.61884 19.3802 1.22798 17.6198 1.22798 15.5455C1.22798 13.465 1.625 11.7015 2.41903 10.255C3.21307 8.80848 4.28717 7.70975 5.64134 6.95881C6.9955 6.20786 8.51278 5.83239 10.1932 5.83239C11.3381 5.83239 12.3968 5.99242 13.3693 6.3125C14.3419 6.62642 15.1974 7.08807 15.9361 7.69744C16.6747 8.30066 17.2749 9.04238 17.7365 9.92259C18.1982 10.8028 18.4844 11.8092 18.5952 12.9418ZM25.7253 16.9119V25H21.2104V6.09091H25.5776V13.4219H25.7346C26.0546 12.5478 26.5778 11.8646 27.3042 11.3722C28.0366 10.8797 28.9322 10.6335 29.9909 10.6335C30.9881 10.6335 31.856 10.8551 32.5946 11.2983C33.3333 11.7353 33.9057 12.3539 34.312 13.1541C34.7244 13.9543 34.9275 14.8899 34.9213 15.9609V25H30.4064V16.8473C30.4126 16.0594 30.2156 15.4439 29.8155 15.0007C29.4154 14.5575 28.8522 14.3359 28.1259 14.3359C27.6519 14.3359 27.2334 14.4406 26.8702 14.6499C26.5132 14.853 26.2331 15.1454 26.03 15.527C25.833 15.9086 25.7315 16.3703 25.7253 16.9119ZM41.7376 25.2401C40.8327 25.2401 40.0295 25.0893 39.3278 24.7876C38.6322 24.4799 38.0813 24.0182 37.6751 23.4027C37.275 22.781 37.0749 22.0024 37.0749 21.0668C37.0749 20.2789 37.2134 19.6141 37.4904 19.0724C37.7674 18.5308 38.149 18.0907 38.6353 17.7521C39.1216 17.4136 39.6817 17.1581 40.3157 16.9858C40.9497 16.8073 41.6268 16.6873 42.3469 16.6257C43.1533 16.5518 43.8027 16.4749 44.2951 16.3949C44.7875 16.3087 45.1445 16.1887 45.3661 16.0348C45.5939 15.8748 45.7077 15.6501 45.7077 15.3608V15.3146C45.7077 14.8407 45.5446 14.4744 45.2184 14.2159C44.8922 13.9574 44.4521 13.8281 43.8981 13.8281C43.301 13.8281 42.8209 13.9574 42.4577 14.2159C42.0946 14.4744 41.8638 14.8314 41.7653 15.2869L37.6012 15.1392C37.7243 14.2775 38.0413 13.508 38.5522 12.831C39.0692 12.1477 39.7771 11.6122 40.6758 11.2244C41.5806 10.8305 42.667 10.6335 43.935 10.6335C44.8398 10.6335 45.6739 10.7412 46.4371 10.9567C47.2004 11.166 47.8652 11.4737 48.4315 11.88C48.9978 12.2801 49.4348 12.7725 49.7425 13.3572C50.0565 13.942 50.2134 14.6098 50.2134 15.3608V25H45.9663V23.0241H45.8555C45.6031 23.5043 45.2799 23.9105 44.886 24.2429C44.4982 24.5753 44.0397 24.8246 43.5103 24.9908C42.9871 25.157 42.3962 25.2401 41.7376 25.2401ZM43.1317 22.2855C43.618 22.2855 44.055 22.187 44.4428 21.9901C44.8368 21.7931 45.1507 21.5223 45.3846 21.1776C45.6185 20.8267 45.7354 20.4205 45.7354 19.9588V18.6108C45.6062 18.6785 45.4492 18.7401 45.2646 18.7955C45.0861 18.8509 44.8891 18.9032 44.6737 18.9524C44.4582 19.0017 44.2366 19.0447 44.0089 19.0817C43.7811 19.1186 43.5626 19.1525 43.3533 19.1832C42.9286 19.2509 42.5655 19.3556 42.2638 19.4972C41.9684 19.6387 41.7406 19.8234 41.5806 20.0511C41.4267 20.2727 41.3498 20.5374 41.3498 20.8452C41.3498 21.313 41.516 21.67 41.8484 21.9162C42.1869 22.1624 42.6147 22.2855 43.1317 22.2855ZM60.979 10.8182V14.142H52.0323V10.8182H60.979ZM53.9066 7.42045H58.4215V20.5405C58.4215 20.8175 58.4646 21.0421 58.5508 21.2145C58.6431 21.3807 58.7755 21.5007 58.9478 21.5746C59.1201 21.6423 59.3263 21.6761 59.5664 21.6761C59.7388 21.6761 59.9203 21.6607 60.1112 21.63C60.3081 21.593 60.4558 21.5623 60.5543 21.5376L61.2376 24.7969C61.0221 24.8584 60.7174 24.9354 60.3235 25.0277C59.9357 25.12 59.471 25.1785 58.9293 25.2031C57.8706 25.2524 56.9627 25.1293 56.2056 24.8338C55.4547 24.5322 54.8791 24.0644 54.479 23.4304C54.0851 22.7964 53.8943 21.9993 53.9066 21.0391V7.42045Z" fill="#D4D4D8"/>
<path d="M19.62 46.8409C19.2753 48.8783 18.5982 50.5987 17.5888 52.0021C16.5855 53.3994 15.3636 54.4581 13.9233 55.1783C12.4891 55.8984 10.9472 56.2585 9.29759 56.2585C7.55563 56.2585 6.04759 55.8707 4.77344 55.0952C3.49929 54.3196 2.57292 53.1901 1.99432 51.7067C1.42188 50.2232 1.31108 48.4228 1.66193 46.3054C1.99432 44.268 2.66217 42.5445 3.66548 41.1349C4.67495 39.7254 5.90294 38.6574 7.34943 37.9311C8.80208 37.1986 10.3594 36.8324 12.0213 36.8324C13.7509 36.8324 15.2498 37.2232 16.5178 38.005C17.7919 38.7867 18.7152 39.9223 19.2876 41.4119C19.8601 42.9015 19.9709 44.7112 19.62 46.8409ZM15.0497 46.3054C15.2405 45.1174 15.2405 44.1172 15.0497 43.3047C14.8651 42.4922 14.5019 41.8797 13.9602 41.4673C13.4186 41.0488 12.7138 40.8395 11.8459 40.8395C10.8857 40.8395 10.0178 41.0765 9.24219 41.5504C8.47277 42.0182 7.82955 42.7015 7.3125 43.6001C6.79545 44.4927 6.43537 45.5729 6.23224 46.8409C6.02296 48.0412 6.01681 49.0414 6.21378 49.8416C6.4169 50.6418 6.79546 51.245 7.34943 51.6513C7.90341 52.0514 8.60819 52.2514 9.46378 52.2514C10.4179 52.2514 11.2765 52.0206 12.0398 51.5589C12.803 51.0973 13.4401 50.4233 13.951 49.5369C14.468 48.6506 14.8343 47.5734 15.0497 46.3054ZM26.6555 47.9119L25.3075 56H20.7926L23.1562 41.8182H27.4496L27.0249 44.4219H27.1818C27.625 43.554 28.2682 42.8738 29.1115 42.3814C29.9548 41.8828 30.9027 41.6335 31.9553 41.6335C32.9463 41.6335 33.7741 41.8551 34.4389 42.2983C35.1037 42.7415 35.5746 43.3632 35.8516 44.1634C36.1286 44.9574 36.1747 45.8899 35.9901 46.9609L34.4759 56H29.9609L31.3182 47.8473C31.4536 47.0656 31.3582 46.4531 31.032 46.0099C30.7119 45.5606 30.1887 45.3359 29.4624 45.3359C28.9884 45.3359 28.5545 45.4406 28.1605 45.6499C27.7727 45.853 27.4465 46.1454 27.1818 46.527C26.9233 46.9086 26.7479 47.3703 26.6555 47.9119ZM44.8975 37.0909L41.7583 56H37.2434L40.3826 37.0909H44.8975ZM44.6321 56L46.9957 41.8182H51.5107L49.147 56H44.6321ZM49.5717 40.1562C48.9316 40.1562 48.4115 39.9439 48.0114 39.5192C47.6113 39.0945 47.4543 38.5866 47.5405 37.9957C47.6267 37.3987 47.9283 36.8909 48.4453 36.4723C48.9624 36.0537 49.5379 35.8445 50.1719 35.8445C50.812 35.8445 51.326 36.0537 51.7138 36.4723C52.1077 36.8909 52.2616 37.3987 52.1754 37.9957C52.1016 38.5866 51.8061 39.0945 51.2891 39.5192C50.7782 39.9439 50.2057 40.1562 49.5717 40.1562ZM57.9114 47.9119L56.5634 56H52.0485L54.4121 41.8182H58.7054L58.2807 44.4219H58.4377C58.8809 43.554 59.5241 42.8738 60.3674 42.3814C61.2106 41.8828 62.1586 41.6335 63.2111 41.6335C64.2021 41.6335 65.03 41.8551 65.6948 42.2983C66.3596 42.7415 66.8304 43.3632 67.1074 44.1634C67.3844 44.9574 67.4306 45.8899 67.2459 46.9609L65.7317 56H61.2168L62.574 47.8473C62.7095 47.0656 62.6141 46.4531 62.2878 46.0099C61.9677 45.5606 61.4445 45.3359 60.7182 45.3359C60.2443 45.3359 59.8103 45.4406 59.4164 45.6499C59.0286 45.853 58.7024 46.1454 58.4377 46.527C58.1792 46.9086 58.0037 47.3703 57.9114 47.9119ZM75.0916 56.2678C73.6082 56.2678 72.3771 55.9754 71.3984 55.3906C70.4259 54.7997 69.7427 53.9595 69.3487 52.87C68.9548 51.7744 68.884 50.4725 69.1364 48.9645C69.3826 47.4995 69.8842 46.2192 70.6413 45.1236C71.4046 44.0218 72.3648 43.1662 73.522 42.5568C74.6792 41.9413 75.9688 41.6335 77.3906 41.6335C78.4001 41.6335 79.2957 41.7905 80.0774 42.1044C80.8591 42.4183 81.5054 42.8861 82.0163 43.5078C82.5272 44.1233 82.875 44.8804 83.0597 45.7791C83.2443 46.6778 83.2382 47.7088 83.0412 48.8722L82.8658 49.9986H70.549L70.9645 47.3764H79.0895C79.1634 46.8963 79.1233 46.4685 78.9695 46.093C78.8156 45.7176 78.5663 45.4252 78.2216 45.2159C77.883 45.0005 77.4676 44.8928 76.9751 44.8928C76.4766 44.8928 76.0088 45.0097 75.5717 45.2436C75.1409 45.4714 74.7746 45.7791 74.473 46.1669C74.1714 46.5547 73.9744 46.9917 73.8821 47.478L73.3928 50.1648C73.2943 50.7618 73.322 51.2727 73.4759 51.6974C73.6297 52.1222 73.8944 52.4484 74.2699 52.6761C74.6454 52.8977 75.1286 53.0085 75.7195 53.0085C76.1134 53.0085 76.4827 52.9562 76.8274 52.8516C77.1721 52.7408 77.4799 52.5777 77.7507 52.3622C78.0277 52.1406 78.2524 51.8729 78.4247 51.5589L82.5426 51.679C82.2102 52.6084 81.6963 53.4179 81.0007 54.1072C80.3052 54.7905 79.4557 55.3229 78.4524 55.7045C77.4553 56.08 76.335 56.2678 75.0916 56.2678Z" fill="#16A34A"/>
</svg>
