<svg width="218" height="36" viewBox="0 0 218 36" fill="none" xmlns="http://www.w3.org/2000/svg">
<path d="M11.4432 7.57955H8.60227C8.56439 7.28788 8.48674 7.02462 8.36932 6.78977C8.25189 6.55492 8.09659 6.35417 7.90341 6.1875C7.71023 6.02083 7.48106 5.89394 7.21591 5.80682C6.95455 5.71591 6.66477 5.67045 6.34659 5.67045C5.7822 5.67045 5.29545 5.80871 4.88636 6.08523C4.48106 6.36174 4.16856 6.76136 3.94886 7.28409C3.73295 7.80682 3.625 8.43939 3.625 9.18182C3.625 9.95455 3.73485 10.6023 3.95455 11.125C4.17803 11.6439 4.49053 12.036 4.89205 12.3011C5.29735 12.5625 5.77652 12.6932 6.32955 12.6932C6.64015 12.6932 6.92235 12.6534 7.17614 12.5739C7.43371 12.4943 7.65909 12.3788 7.85227 12.2273C8.04924 12.072 8.21023 11.8845 8.33523 11.6648C8.46402 11.4413 8.55303 11.1894 8.60227 10.9091L11.4432 10.9261C11.3939 11.4413 11.2443 11.9489 10.9943 12.4489C10.7481 12.9489 10.4091 13.4053 9.97727 13.8182C9.54545 14.2273 9.01894 14.553 8.39773 14.7955C7.7803 15.0379 7.07197 15.1591 6.27273 15.1591C5.2197 15.1591 4.27652 14.928 3.44318 14.4659C2.61364 14 1.95833 13.322 1.47727 12.4318C0.996212 11.5417 0.755682 10.4583 0.755682 9.18182C0.755682 7.90152 1 6.81629 1.48864 5.92614C1.97727 5.03598 2.63826 4.35985 3.47159 3.89773C4.30492 3.43561 5.23864 3.20455 6.27273 3.20455C6.97727 3.20455 7.62879 3.30303 8.22727 3.5C8.82576 3.69318 9.35227 3.97727 9.80682 4.35227C10.2614 4.72348 10.6307 5.17992 10.9148 5.72159C11.1989 6.26326 11.375 6.88258 11.4432 7.57955ZM15.831 10.0227V15H13.0526V3.36364H15.7401V7.875H15.8366C16.0336 7.33712 16.3556 6.91667 16.8026 6.61364C17.2533 6.31061 17.8045 6.15909 18.456 6.15909C19.0696 6.15909 19.6037 6.29545 20.0582 6.56818C20.5128 6.83712 20.8651 7.2178 21.1151 7.71023C21.3688 8.20265 21.4938 8.77841 21.4901 9.4375V15H18.7116V9.98295C18.7154 9.49811 18.5942 9.11932 18.348 8.84659C18.1018 8.57386 17.7552 8.4375 17.3082 8.4375C17.0166 8.4375 16.759 8.50189 16.5355 8.63068C16.3158 8.75568 16.1435 8.93561 16.0185 9.17045C15.8973 9.4053 15.8348 9.68939 15.831 10.0227ZM25.6847 15.1477C25.1278 15.1477 24.6335 15.0549 24.2017 14.8693C23.7737 14.6799 23.4347 14.3958 23.1847 14.017C22.9384 13.6345 22.8153 13.1553 22.8153 12.5795C22.8153 12.0947 22.9006 11.6856 23.071 11.3523C23.2415 11.0189 23.4763 10.7481 23.7756 10.5398C24.0748 10.3314 24.4195 10.1742 24.8097 10.0682C25.1998 9.95833 25.6165 9.88447 26.0597 9.84659C26.5559 9.80114 26.9555 9.75379 27.2585 9.70455C27.5616 9.65152 27.7813 9.57765 27.9176 9.48295C28.0578 9.38447 28.1278 9.24621 28.1278 9.06818V9.03977C28.1278 8.74811 28.0275 8.52273 27.8267 8.36364C27.6259 8.20455 27.3551 8.125 27.0142 8.125C26.6468 8.125 26.3513 8.20455 26.1278 8.36364C25.9044 8.52273 25.7623 8.74242 25.7017 9.02273L23.1392 8.93182C23.215 8.40152 23.41 7.92803 23.7244 7.51136C24.0426 7.09091 24.4782 6.76136 25.0312 6.52273C25.5881 6.2803 26.2566 6.15909 27.0369 6.15909C27.5938 6.15909 28.107 6.22538 28.5767 6.35795C29.0464 6.48674 29.4555 6.67614 29.804 6.92614C30.1525 7.17235 30.4214 7.47538 30.6108 7.83523C30.804 8.19508 30.9006 8.60606 30.9006 9.06818V15H28.2869V13.7841H28.2188C28.0634 14.0795 27.8646 14.3295 27.6222 14.5341C27.3835 14.7386 27.1013 14.892 26.7756 14.9943C26.4536 15.0966 26.09 15.1477 25.6847 15.1477ZM26.5426 13.3295C26.8419 13.3295 27.1108 13.2689 27.3494 13.1477C27.5919 13.0265 27.785 12.8598 27.929 12.6477C28.0729 12.4318 28.1449 12.1818 28.1449 11.8977V11.0682C28.0653 11.1098 27.9688 11.1477 27.8551 11.1818C27.7453 11.2159 27.6241 11.2481 27.4915 11.2784C27.3589 11.3087 27.2225 11.3352 27.0824 11.358C26.9422 11.3807 26.8078 11.4015 26.679 11.4205C26.4176 11.4621 26.1941 11.5265 26.0085 11.6136C25.8267 11.7008 25.6866 11.8144 25.5881 11.9545C25.4934 12.0909 25.446 12.2538 25.446 12.4432C25.446 12.7311 25.5483 12.9508 25.7528 13.1023C25.9612 13.2538 26.2244 13.3295 26.5426 13.3295ZM37.5256 6.27273V8.31818H32.0199V6.27273H37.5256ZM33.1733 4.18182H35.9517V12.2557C35.9517 12.4261 35.9782 12.5644 36.0312 12.6705C36.0881 12.7727 36.1695 12.8466 36.2756 12.892C36.3816 12.9337 36.5085 12.9545 36.6562 12.9545C36.7623 12.9545 36.8741 12.9451 36.9915 12.9261C37.1127 12.9034 37.2036 12.8845 37.2642 12.8693L37.6847 14.875C37.5521 14.9129 37.3646 14.9602 37.1222 15.017C36.8835 15.0739 36.5975 15.1098 36.2642 15.125C35.6127 15.1553 35.054 15.0795 34.5881 14.8977C34.1259 14.7121 33.7718 14.4242 33.5256 14.0341C33.2831 13.6439 33.1657 13.1534 33.1733 12.5625V4.18182Z" fill="#D4D4D8"/>
<path d="M12.0739 28.3636C11.8617 29.6174 11.4451 30.6761 10.8239 31.5398C10.2064 32.3996 9.45455 33.0511 8.56818 33.4943C7.68561 33.9375 6.73674 34.1591 5.72159 34.1591C4.64962 34.1591 3.72159 33.9205 2.9375 33.4432C2.15341 32.9659 1.58333 32.2708 1.22727 31.358C0.875 30.4451 0.806818 29.3371 1.02273 28.0341C1.22727 26.7803 1.63826 25.7197 2.25568 24.8523C2.87689 23.9848 3.63258 23.3277 4.52273 22.8807C5.41667 22.4299 6.375 22.2045 7.39773 22.2045C8.46212 22.2045 9.38447 22.4451 10.1648 22.9261C10.9489 23.4072 11.517 24.1061 11.8693 25.0227C12.2216 25.9394 12.2898 27.053 12.0739 28.3636ZM9.26136 28.0341C9.37879 27.303 9.37879 26.6875 9.26136 26.1875C9.14773 25.6875 8.92424 25.3106 8.59091 25.0568C8.25758 24.7992 7.82386 24.6705 7.28977 24.6705C6.69886 24.6705 6.16477 24.8163 5.6875 25.108C5.21402 25.3958 4.81818 25.8163 4.5 26.3693C4.18182 26.9186 3.96023 27.5833 3.83523 28.3636C3.70644 29.1023 3.70265 29.7178 3.82386 30.2102C3.94886 30.7027 4.18182 31.0739 4.52273 31.3239C4.86364 31.5701 5.29735 31.6932 5.82386 31.6932C6.41098 31.6932 6.93939 31.5511 7.40909 31.267C7.87879 30.983 8.27083 30.5682 8.58523 30.0227C8.90341 29.4773 9.12879 28.8144 9.26136 28.0341ZM16.4034 29.0227L15.5739 34H12.7955L14.25 25.2727H16.892L16.6307 26.875H16.7273C17 26.3409 17.3958 25.9223 17.9148 25.6193C18.4337 25.3125 19.017 25.1591 19.6648 25.1591C20.2746 25.1591 20.7841 25.2955 21.1932 25.5682C21.6023 25.8409 21.892 26.2235 22.0625 26.7159C22.233 27.2045 22.2614 27.7784 22.1477 28.4375L21.2159 34H18.4375L19.2727 28.983C19.3561 28.5019 19.2973 28.125 19.0966 27.8523C18.8996 27.5758 18.5777 27.4375 18.1307 27.4375C17.839 27.4375 17.572 27.5019 17.3295 27.6307C17.0909 27.7557 16.8902 27.9356 16.7273 28.1705C16.5682 28.4053 16.4602 28.6894 16.4034 29.0227ZM27.6293 22.3636L25.6974 34H22.919L24.8509 22.3636H27.6293ZM27.4659 34L28.9205 25.2727H31.6989L30.2443 34H27.4659ZM30.5057 24.25C30.1117 24.25 29.7917 24.1193 29.5455 23.858C29.2992 23.5966 29.2027 23.2841 29.2557 22.9205C29.3087 22.553 29.4943 22.2405 29.8125 21.983C30.1307 21.7254 30.4848 21.5966 30.875 21.5966C31.2689 21.5966 31.5852 21.7254 31.8239 21.983C32.0663 22.2405 32.161 22.553 32.108 22.9205C32.0625 23.2841 31.8807 23.5966 31.5625 23.858C31.2481 24.1193 30.8958 24.25 30.5057 24.25ZM35.6378 29.0227L34.8082 34H32.0298L33.4844 25.2727H36.1264L35.8651 26.875H35.9616C36.2344 26.3409 36.6302 25.9223 37.1491 25.6193C37.6681 25.3125 38.2514 25.1591 38.8991 25.1591C39.509 25.1591 40.0185 25.2955 40.4276 25.5682C40.8366 25.8409 41.1264 26.2235 41.2969 26.7159C41.4673 27.2045 41.4957 27.7784 41.3821 28.4375L40.4503 34H37.6719L38.5071 28.983C38.5904 28.5019 38.5317 28.125 38.331 27.8523C38.134 27.5758 37.812 27.4375 37.3651 27.4375C37.0734 27.4375 36.8063 27.5019 36.5639 27.6307C36.3253 27.7557 36.1245 27.9356 35.9616 28.1705C35.8026 28.4053 35.6946 28.6894 35.6378 29.0227ZM46.2102 34.1648C45.2973 34.1648 44.5398 33.9848 43.9375 33.625C43.339 33.2614 42.9186 32.7443 42.6761 32.0739C42.4337 31.3996 42.3902 30.5985 42.5455 29.6705C42.697 28.7689 43.0057 27.9811 43.4716 27.3068C43.9413 26.6288 44.5322 26.1023 45.2443 25.7273C45.9564 25.3485 46.75 25.1591 47.625 25.1591C48.2462 25.1591 48.7973 25.2557 49.2784 25.4489C49.7595 25.642 50.1572 25.9299 50.4716 26.3125C50.786 26.6913 51 27.1572 51.1136 27.7102C51.2273 28.2633 51.2235 28.8977 51.1023 29.6136L50.9943 30.3068H43.4148L43.6705 28.6932H48.6705C48.7159 28.3977 48.6913 28.1345 48.5966 27.9034C48.5019 27.6723 48.3485 27.4924 48.1364 27.3636C47.928 27.2311 47.6723 27.1648 47.3693 27.1648C47.0625 27.1648 46.7746 27.2367 46.5057 27.3807C46.2405 27.5208 46.0152 27.7102 45.8295 27.9489C45.6439 28.1875 45.5227 28.4564 45.4659 28.7557L45.1648 30.4091C45.1042 30.7765 45.1212 31.0909 45.2159 31.3523C45.3106 31.6136 45.4735 31.8144 45.7045 31.9545C45.9356 32.0909 46.233 32.1591 46.5966 32.1591C46.839 32.1591 47.0663 32.1269 47.2784 32.0625C47.4905 31.9943 47.6799 31.8939 47.8466 31.7614C48.017 31.625 48.1553 31.4602 48.2614 31.267L50.7955 31.3409C50.5909 31.9129 50.2746 32.411 49.8466 32.8352C49.4186 33.2557 48.8958 33.5833 48.2784 33.8182C47.6648 34.0492 46.9754 34.1648 46.2102 34.1648Z" fill="#16A34A"/>
</svg>
