<svg width="86" height="53" viewBox="0 0 86 53" fill="none" xmlns="http://www.w3.org/2000/svg">
<path d="M17.1648 11.8693H12.9034C12.8466 11.4318 12.7301 11.0369 12.554 10.6847C12.3778 10.3324 12.1449 10.0312 11.8551 9.78125C11.5653 9.53125 11.2216 9.34091 10.8239 9.21023C10.4318 9.07386 9.99716 9.00568 9.51989 9.00568C8.6733 9.00568 7.94318 9.21307 7.32955 9.62784C6.72159 10.0426 6.25284 10.642 5.9233 11.4261C5.59943 12.2102 5.4375 13.1591 5.4375 14.2727C5.4375 15.4318 5.60227 16.4034 5.93182 17.1875C6.26705 17.9659 6.7358 18.554 7.33807 18.9517C7.94602 19.3437 8.66477 19.5398 9.49432 19.5398C9.96023 19.5398 10.3835 19.4801 10.7642 19.3608C11.1506 19.2415 11.4886 19.0682 11.7784 18.8409C12.0739 18.608 12.3153 18.3267 12.5028 17.9972C12.696 17.6619 12.8295 17.2841 12.9034 16.8636L17.1648 16.8892C17.0909 17.6619 16.8665 18.4233 16.4915 19.1733C16.1222 19.9233 15.6136 20.608 14.9659 21.2273C14.3182 21.8409 13.5284 22.3295 12.5966 22.6932C11.6705 23.0568 10.608 23.2386 9.40909 23.2386C7.82955 23.2386 6.41477 22.892 5.16477 22.1989C3.92045 21.5 2.9375 20.483 2.21591 19.1477C1.49432 17.8125 1.13352 16.1875 1.13352 14.2727C1.13352 12.3523 1.5 10.7244 2.23295 9.3892C2.96591 8.05398 3.95739 7.03977 5.20739 6.34659C6.45739 5.65341 7.85795 5.30682 9.40909 5.30682C10.4659 5.30682 11.4432 5.45455 12.3409 5.75C13.2386 6.03977 14.0284 6.46591 14.7102 7.02841C15.392 7.58523 15.946 8.26989 16.3722 9.08239C16.7983 9.89489 17.0625 10.8239 17.1648 11.8693ZM23.7464 15.5341V23H19.5788V5.54545H23.6101V12.3125H23.755C24.0504 11.5057 24.5334 10.875 25.2038 10.4205C25.88 9.96591 26.7067 9.73864 27.6839 9.73864C28.6044 9.73864 29.4055 9.94318 30.0874 10.3523C30.7692 10.7557 31.2976 11.3267 31.6726 12.0653C32.0533 12.804 32.2408 13.6676 32.2351 14.6562V23H28.0675V15.4744C28.0732 14.7472 27.8913 14.179 27.522 13.7699C27.1527 13.3608 26.6328 13.1562 25.9624 13.1562C25.5249 13.1562 25.1385 13.2528 24.8033 13.446C24.4737 13.6335 24.2152 13.9034 24.0277 14.2557C23.8459 14.608 23.7521 15.0341 23.7464 15.5341ZM38.527 23.2216C37.6918 23.2216 36.9503 23.0824 36.3026 22.804C35.6605 22.5199 35.152 22.0937 34.777 21.5256C34.4077 20.9517 34.223 20.233 34.223 19.3693C34.223 18.642 34.3509 18.0284 34.6065 17.5284C34.8622 17.0284 35.2145 16.6222 35.6634 16.3097C36.1122 15.9972 36.6293 15.7614 37.2145 15.6023C37.7997 15.4375 38.4247 15.3267 39.0895 15.2699C39.8338 15.2017 40.4332 15.1307 40.8878 15.0568C41.3423 14.9773 41.6719 14.8665 41.8764 14.7244C42.0866 14.5767 42.1918 14.3693 42.1918 14.1023V14.0597C42.1918 13.6222 42.0412 13.2841 41.7401 13.0455C41.4389 12.8068 41.0327 12.6875 40.5213 12.6875C39.9702 12.6875 39.527 12.8068 39.1918 13.0455C38.8565 13.2841 38.6435 13.6136 38.5526 14.0341L34.7088 13.8977C34.8224 13.1023 35.1151 12.392 35.5866 11.767C36.0639 11.1364 36.7173 10.642 37.5469 10.2841C38.3821 9.92045 39.3849 9.73864 40.5554 9.73864C41.3906 9.73864 42.1605 9.83807 42.8651 10.0369C43.5696 10.2301 44.1832 10.5142 44.706 10.8892C45.2287 11.2585 45.6321 11.7131 45.9162 12.2528C46.206 12.7926 46.3509 13.4091 46.3509 14.1023V23H42.4304V21.1761H42.3281C42.0952 21.6193 41.7969 21.9943 41.4332 22.3011C41.0753 22.608 40.652 22.8381 40.1634 22.9915C39.6804 23.1449 39.1349 23.2216 38.527 23.2216ZM39.8139 20.4943C40.2628 20.4943 40.6662 20.4034 41.0241 20.2216C41.3878 20.0398 41.6776 19.7898 41.8935 19.4716C42.1094 19.1477 42.2173 18.7727 42.2173 18.3466V17.1023C42.098 17.1648 41.9531 17.2216 41.7827 17.2727C41.6179 17.3239 41.4361 17.3722 41.2372 17.4176C41.0384 17.4631 40.8338 17.5028 40.6236 17.5369C40.4134 17.571 40.2116 17.6023 40.0185 17.6307C39.6264 17.6932 39.2912 17.7898 39.0128 17.9205C38.7401 18.0511 38.5298 18.2216 38.3821 18.4318C38.2401 18.6364 38.169 18.8807 38.169 19.1648C38.169 19.5966 38.3224 19.9261 38.6293 20.1534C38.9418 20.3807 39.3366 20.4943 39.8139 20.4943ZM56.2884 9.90909V12.9773H48.0298V9.90909H56.2884ZM49.7599 6.77273H53.9276V18.8835C53.9276 19.1392 53.9673 19.3466 54.0469 19.5057C54.1321 19.6591 54.2543 19.7699 54.4134 19.8381C54.5724 19.9006 54.7628 19.9318 54.9844 19.9318C55.1435 19.9318 55.3111 19.9176 55.4872 19.8892C55.669 19.8551 55.8054 19.8267 55.8963 19.804L56.527 22.8125C56.3281 22.8693 56.0469 22.9403 55.6832 23.0256C55.3253 23.1108 54.8963 23.1648 54.3963 23.1875C53.419 23.233 52.581 23.1193 51.8821 22.8466C51.1889 22.5682 50.6577 22.1364 50.2884 21.5511C49.9247 20.9659 49.7486 20.2301 49.7599 19.3438V6.77273Z" fill="#D4D4D8"/>
<path d="M18.1108 43.5455C17.7926 45.4261 17.1676 47.0142 16.2358 48.3097C15.3097 49.5994 14.1818 50.5767 12.8523 51.2415C11.5284 51.9062 10.1051 52.2386 8.58239 52.2386C6.97443 52.2386 5.58239 51.8807 4.40625 51.1648C3.23011 50.4489 2.375 49.4062 1.84091 48.0369C1.3125 46.6676 1.21023 45.0057 1.53409 43.0511C1.84091 41.1705 2.45739 39.5795 3.38352 38.2784C4.31534 36.9773 5.44886 35.9915 6.78409 35.321C8.125 34.6449 9.5625 34.3068 11.0966 34.3068C12.6932 34.3068 14.0767 34.6676 15.2472 35.3892C16.4233 36.1108 17.2756 37.1591 17.804 38.5341C18.3324 39.9091 18.4347 41.5795 18.1108 43.5455ZM13.892 43.0511C14.0682 41.9545 14.0682 41.0312 13.892 40.2812C13.7216 39.5312 13.3864 38.9659 12.8864 38.5852C12.3864 38.1989 11.7358 38.0057 10.9347 38.0057C10.0483 38.0057 9.24716 38.2244 8.53125 38.6619C7.82102 39.0937 7.22727 39.7244 6.75 40.554C6.27273 41.3778 5.94034 42.375 5.75284 43.5455C5.55966 44.6534 5.55398 45.5767 5.7358 46.3153C5.9233 47.054 6.27273 47.6108 6.78409 47.9858C7.29545 48.3551 7.94602 48.5398 8.7358 48.5398C9.61648 48.5398 10.4091 48.3267 11.1136 47.9006C11.8182 47.4744 12.4063 46.8523 12.8778 46.0341C13.3551 45.2159 13.6932 44.2216 13.892 43.0511ZM24.6051 44.5341L23.3608 52H19.1932L21.375 38.9091H25.3381L24.946 41.3125H25.0909C25.5 40.5114 26.0938 39.8835 26.8722 39.429C27.6506 38.9688 28.5256 38.7386 29.4972 38.7386C30.4119 38.7386 31.1761 38.9432 31.7898 39.3523C32.4034 39.7614 32.8381 40.3352 33.0938 41.0739C33.3494 41.8068 33.392 42.6676 33.2216 43.6562L31.8239 52H27.6562L28.9091 44.4744C29.0341 43.7528 28.946 43.1875 28.6449 42.7784C28.3494 42.3636 27.8665 42.1562 27.196 42.1562C26.7585 42.1562 26.358 42.2528 25.9943 42.446C25.6364 42.6335 25.3352 42.9034 25.0909 43.2557C24.8523 43.608 24.6903 44.0341 24.6051 44.5341ZM41.4439 34.5455L38.5462 52H34.3786L37.2763 34.5455H41.4439ZM41.1989 52L43.3807 38.9091H47.5483L45.3665 52H41.1989ZM45.7585 37.375C45.1676 37.375 44.6875 37.179 44.3182 36.7869C43.9489 36.3949 43.804 35.9261 43.8835 35.3807C43.9631 34.8295 44.2415 34.3608 44.7188 33.9744C45.196 33.5881 45.7273 33.3949 46.3125 33.3949C46.9034 33.3949 47.3778 33.5881 47.7358 33.9744C48.0994 34.3608 48.2415 34.8295 48.1619 35.3807C48.0938 35.9261 47.821 36.3949 47.3438 36.7869C46.8722 37.179 46.3438 37.375 45.7585 37.375ZM53.4567 44.5341L52.2124 52H48.0447L50.2266 38.9091H54.1896L53.7976 41.3125H53.9425C54.3516 40.5114 54.9453 39.8835 55.7237 39.429C56.5021 38.9688 57.3771 38.7386 58.3487 38.7386C59.2635 38.7386 60.0277 38.9432 60.6413 39.3523C61.255 39.7614 61.6896 40.3352 61.9453 41.0739C62.201 41.8068 62.2436 42.6676 62.0732 43.6562L60.6754 52H56.5078L57.7607 44.4744C57.8857 43.7528 57.7976 43.1875 57.4964 42.7784C57.201 42.3636 56.718 42.1562 56.0476 42.1562C55.6101 42.1562 55.2095 42.2528 54.8459 42.446C54.4879 42.6335 54.1868 42.9034 53.9425 43.2557C53.7038 43.608 53.5419 44.0341 53.4567 44.5341ZM69.3153 52.2472C67.946 52.2472 66.8097 51.9773 65.9062 51.4375C65.0085 50.892 64.3778 50.1165 64.0142 49.1108C63.6506 48.0994 63.5852 46.8977 63.8182 45.5057C64.0455 44.1534 64.5085 42.9716 65.2074 41.9602C65.9119 40.9432 66.7983 40.1534 67.8665 39.5909C68.9347 39.0227 70.125 38.7386 71.4375 38.7386C72.3693 38.7386 73.196 38.8835 73.9176 39.1733C74.6392 39.4631 75.2358 39.8949 75.7074 40.4688C76.179 41.0369 76.5 41.7358 76.6705 42.5653C76.8409 43.3949 76.8352 44.3466 76.6534 45.4205L76.4915 46.4602H65.1222L65.5057 44.0398H73.0057C73.0739 43.5966 73.0369 43.2017 72.8949 42.8551C72.7528 42.5085 72.5227 42.2386 72.2045 42.0455C71.892 41.8466 71.5085 41.7472 71.054 41.7472C70.5938 41.7472 70.1619 41.8551 69.7585 42.071C69.3608 42.2812 69.0227 42.5653 68.7443 42.9233C68.4659 43.2812 68.2841 43.6847 68.1989 44.1335L67.7472 46.6136C67.6563 47.1648 67.6818 47.6364 67.8239 48.0284C67.9659 48.4205 68.2102 48.7216 68.5568 48.9318C68.9034 49.1364 69.3494 49.2386 69.8949 49.2386C70.2585 49.2386 70.5994 49.1903 70.9176 49.0938C71.2358 48.9915 71.5199 48.8409 71.7699 48.642C72.0256 48.4375 72.233 48.1903 72.392 47.9006L76.1932 48.0114C75.8864 48.8693 75.4119 49.6165 74.7699 50.2528C74.1278 50.8835 73.3438 51.375 72.4176 51.7273C71.4972 52.0739 70.4631 52.2472 69.3153 52.2472Z" fill="#16A34A"/>
</svg>
