<svg width="137" height="103" viewBox="0 0 137 103" fill="none" xmlns="http://www.w3.org/2000/svg">
<path d="M25.7472 18.304H19.3551C19.2699 17.6477 19.0952 17.0554 18.831 16.527C18.5668 15.9986 18.2173 15.5469 17.7827 15.1719C17.348 14.7969 16.8324 14.5114 16.2358 14.3153C15.6477 14.1108 14.9957 14.0085 14.2798 14.0085C13.0099 14.0085 11.9148 14.3196 10.9943 14.9418C10.0824 15.5639 9.37926 16.4631 8.88494 17.6392C8.39915 18.8153 8.15625 20.2386 8.15625 21.9091C8.15625 23.6477 8.40341 25.1051 8.89773 26.2812C9.40057 27.4489 10.1037 28.331 11.0071 28.9276C11.919 29.5156 12.9972 29.8097 14.2415 29.8097C14.9403 29.8097 15.5753 29.7202 16.1463 29.5412C16.7259 29.3622 17.233 29.1023 17.6676 28.7614C18.1108 28.4119 18.473 27.9901 18.7543 27.4957C19.044 26.9929 19.2443 26.4261 19.3551 25.7955L25.7472 25.8338C25.6364 26.9929 25.2997 28.1349 24.7372 29.2599C24.1832 30.3849 23.4205 31.4119 22.4489 32.3409C21.4773 33.2614 20.2926 33.9943 18.8949 34.5398C17.5057 35.0852 15.9119 35.358 14.1136 35.358C11.7443 35.358 9.62216 34.8381 7.74716 33.7983C5.88068 32.75 4.40625 31.2244 3.32386 29.2216C2.24148 27.2187 1.70028 24.7812 1.70028 21.9091C1.70028 19.0284 2.25 16.5866 3.34943 14.5838C4.44886 12.581 5.93608 11.0597 7.81108 10.0199C9.68608 8.98011 11.7869 8.46023 14.1136 8.46023C15.6989 8.46023 17.1648 8.68182 18.5114 9.125C19.858 9.55966 21.0426 10.1989 22.0653 11.0426C23.0881 11.8778 23.919 12.9048 24.5582 14.1236C25.1974 15.3423 25.5938 16.7358 25.7472 18.304ZM35.6197 23.8011V35H29.3683V8.81818H35.4151V18.9688H35.6325C36.0756 17.7585 36.8001 16.8125 37.8058 16.1307C38.82 15.4489 40.06 15.108 41.5259 15.108C42.9066 15.108 44.1083 15.4148 45.131 16.0284C46.1538 16.6335 46.9464 17.4901 47.5089 18.598C48.0799 19.706 48.3612 21.0014 48.3526 22.4844V35H42.1012V23.7116C42.1097 22.6207 41.837 21.7685 41.283 21.1548C40.729 20.5412 39.9492 20.2344 38.9435 20.2344C38.2873 20.2344 37.7077 20.3793 37.2049 20.669C36.7106 20.9503 36.3228 21.3551 36.0415 21.8835C35.7688 22.4119 35.6282 23.0511 35.6197 23.8011ZM57.7905 35.3324C56.5376 35.3324 55.4254 35.1236 54.4538 34.706C53.4908 34.2798 52.728 33.6406 52.1655 32.7884C51.6115 31.9276 51.3345 30.8494 51.3345 29.554C51.3345 28.4631 51.5263 27.5426 51.9098 26.7926C52.2933 26.0426 52.8217 25.4332 53.495 24.9645C54.1683 24.4957 54.9439 24.142 55.8217 23.9034C56.6996 23.6562 57.6371 23.4901 58.6342 23.4048C59.7507 23.3026 60.6499 23.196 61.3317 23.0852C62.0135 22.9659 62.5078 22.7997 62.8146 22.5866C63.13 22.3651 63.2876 22.054 63.2876 21.6534V21.5895C63.2876 20.9332 63.0618 20.4261 62.6101 20.0682C62.1584 19.7102 61.549 19.5312 60.782 19.5312C59.9553 19.5312 59.2905 19.7102 58.7876 20.0682C58.2848 20.4261 57.9652 20.9205 57.8288 21.5511L52.0632 21.3466C52.2337 20.1534 52.6726 19.0881 53.38 18.1506C54.0959 17.2045 55.076 16.4631 56.3203 15.9261C57.5732 15.3807 59.0774 15.108 60.8331 15.108C62.0859 15.108 63.2408 15.2571 64.2976 15.5554C65.3544 15.8452 66.2749 16.2713 67.0589 16.8338C67.843 17.3878 68.4482 18.0696 68.8743 18.8793C69.3089 19.6889 69.5263 20.6136 69.5263 21.6534V35H63.6456V32.2642H63.4922C63.1428 32.929 62.6953 33.4915 62.1499 33.9517C61.6129 34.4119 60.978 34.7571 60.245 34.9872C59.5206 35.2173 58.7024 35.3324 57.7905 35.3324ZM59.7209 31.2415C60.3942 31.2415 60.9993 31.1051 61.5362 30.8324C62.0817 30.5597 62.5163 30.1847 62.8402 29.7074C63.1641 29.2216 63.326 28.6591 63.326 28.0199V26.1534C63.147 26.2472 62.9297 26.3324 62.674 26.4091C62.4268 26.4858 62.1541 26.5582 61.8558 26.6264C61.5575 26.6946 61.2507 26.7543 60.9354 26.8054C60.62 26.8565 60.3175 26.9034 60.0277 26.946C59.4396 27.0398 58.9368 27.1847 58.5192 27.3807C58.1101 27.5767 57.7947 27.8324 57.5732 28.1477C57.3601 28.4545 57.2536 28.821 57.2536 29.2472C57.2536 29.8949 57.4837 30.3892 57.9439 30.7301C58.4126 31.071 59.005 31.2415 59.7209 31.2415ZM84.4325 15.3636V19.9659H72.0447V15.3636H84.4325ZM74.6399 10.6591H80.8913V28.8253C80.8913 29.2088 80.951 29.5199 81.0703 29.7585C81.1982 29.9886 81.3814 30.1548 81.62 30.2571C81.8587 30.3509 82.1442 30.3977 82.4766 30.3977C82.7152 30.3977 82.9666 30.3764 83.2308 30.3338C83.5036 30.2827 83.7081 30.2401 83.8445 30.206L84.7905 34.7188C84.4922 34.804 84.0703 34.9105 83.5249 35.0384C82.9879 35.1662 82.3445 35.2472 81.5945 35.2812C80.1286 35.3494 78.8714 35.179 77.8232 34.7699C76.7834 34.3523 75.9865 33.7045 75.4325 32.8267C74.8871 31.9489 74.6229 30.8452 74.6399 29.5156V10.6591Z" fill="#D4D4D8"/>
<path d="M27.1662 66.3182C26.6889 69.1392 25.7514 71.5213 24.3537 73.4645C22.9645 75.3991 21.2727 76.8651 19.2784 77.8622C17.2926 78.8594 15.1577 79.358 12.8736 79.358C10.4616 79.358 8.37358 78.821 6.60938 77.7472C4.84517 76.6733 3.5625 75.1094 2.76136 73.0554C1.96875 71.0014 1.81534 68.5085 2.30114 65.5767C2.76136 62.7557 3.68608 60.3693 5.07528 58.4176C6.47301 56.4659 8.1733 54.9872 10.1761 53.9815C12.1875 52.9673 14.3438 52.4602 16.6449 52.4602C19.0398 52.4602 21.1151 53.0014 22.8707 54.0838C24.6349 55.1662 25.9134 56.7386 26.706 58.8011C27.4986 60.8636 27.652 63.3693 27.1662 66.3182ZM20.8381 65.5767C21.1023 63.9318 21.1023 62.5469 20.8381 61.4219C20.5824 60.2969 20.0795 59.4489 19.3295 58.8778C18.5795 58.2983 17.6037 58.0085 16.402 58.0085C15.0724 58.0085 13.8707 58.3366 12.7969 58.9929C11.7315 59.6406 10.8409 60.5866 10.125 61.831C9.40909 63.0668 8.91051 64.5625 8.62926 66.3182C8.33949 67.9801 8.33097 69.3651 8.60369 70.473C8.88494 71.581 9.40909 72.4162 10.1761 72.9787C10.9432 73.5327 11.919 73.8097 13.1037 73.8097C14.4247 73.8097 15.6136 73.4901 16.6705 72.8509C17.7273 72.2116 18.6094 71.2784 19.3168 70.0511C20.0327 68.8239 20.5398 67.3324 20.8381 65.5767ZM36.9077 67.8011L35.0412 79H28.7898L32.0625 59.3636H38.0071L37.419 62.9688H37.6364C38.25 61.767 39.1406 60.8253 40.3082 60.1435C41.4759 59.4531 42.7884 59.108 44.2457 59.108C45.6179 59.108 46.7642 59.4148 47.6847 60.0284C48.6051 60.642 49.2571 61.5028 49.6406 62.6108C50.0241 63.7102 50.0881 65.0014 49.8324 66.4844L47.7358 79H41.4844L43.3636 67.7116C43.5511 66.6293 43.419 65.7812 42.9673 65.1676C42.5241 64.5455 41.7997 64.2344 40.794 64.2344C40.1378 64.2344 39.5369 64.3793 38.9915 64.669C38.4545 64.9503 38.0028 65.3551 37.6364 65.8835C37.2784 66.4119 37.0355 67.0511 36.9077 67.8011ZM62.1658 52.8182L57.8192 79H51.5678L55.9144 52.8182H62.1658ZM61.7983 79L65.071 59.3636H71.3224L68.0497 79H61.7983ZM68.6378 57.0625C67.7514 57.0625 67.0312 56.7685 66.4773 56.1804C65.9233 55.5923 65.706 54.8892 65.8253 54.071C65.9446 53.2443 66.3622 52.5412 67.0781 51.9616C67.794 51.3821 68.5909 51.0923 69.4688 51.0923C70.3551 51.0923 71.0668 51.3821 71.6037 51.9616C72.1491 52.5412 72.3622 53.2443 72.2429 54.071C72.1406 54.8892 71.7315 55.5923 71.0156 56.1804C70.3082 56.7685 69.5156 57.0625 68.6378 57.0625ZM80.185 67.8011L78.3185 79H72.0671L75.3398 59.3636H81.2844L80.6964 62.9688H80.9137C81.5273 61.767 82.418 60.8253 83.5856 60.1435C84.7532 59.4531 86.0657 59.108 87.5231 59.108C88.8952 59.108 90.0415 59.4148 90.962 60.0284C91.8825 60.642 92.5344 61.5028 92.918 62.6108C93.3015 63.7102 93.3654 65.0014 93.1097 66.4844L91.0131 79H84.7617L86.641 67.7116C86.8285 66.6293 86.6964 65.7812 86.2447 65.1676C85.8015 64.5455 85.0771 64.2344 84.0714 64.2344C83.4151 64.2344 82.8143 64.3793 82.2688 64.669C81.7319 64.9503 81.2802 65.3551 80.9137 65.8835C80.5558 66.4119 80.3129 67.0511 80.185 67.8011ZM103.973 79.3707C101.919 79.3707 100.214 78.9659 98.8594 78.1562C97.5128 77.3381 96.5668 76.1747 96.0213 74.6662C95.4759 73.1491 95.3778 71.3466 95.7273 69.2585C96.0682 67.2301 96.7628 65.4574 97.8111 63.9403C98.8679 62.4148 100.197 61.2301 101.8 60.3864C103.402 59.5341 105.188 59.108 107.156 59.108C108.554 59.108 109.794 59.3253 110.876 59.7599C111.959 60.1946 112.854 60.8423 113.561 61.7031C114.268 62.5554 114.75 63.6037 115.006 64.848C115.261 66.0923 115.253 67.5199 114.98 69.1307L114.737 70.6903H97.6832L98.2585 67.0597H109.509C109.611 66.3949 109.555 65.8026 109.342 65.2827C109.129 64.7628 108.784 64.358 108.307 64.0682C107.838 63.7699 107.263 63.6207 106.581 63.6207C105.891 63.6207 105.243 63.7827 104.638 64.1065C104.041 64.4219 103.534 64.848 103.116 65.3849C102.699 65.9219 102.426 66.527 102.298 67.2003L101.621 70.9205C101.484 71.7472 101.523 72.4545 101.736 73.0426C101.949 73.6307 102.315 74.0824 102.835 74.3977C103.355 74.7045 104.024 74.858 104.842 74.858C105.388 74.858 105.899 74.7855 106.376 74.6406C106.854 74.4872 107.28 74.2614 107.655 73.9631C108.038 73.6562 108.349 73.2855 108.588 72.8509L114.29 73.017C113.83 74.304 113.118 75.4247 112.155 76.3793C111.192 77.3253 110.016 78.0625 108.626 78.5909C107.246 79.1108 105.695 79.3707 103.973 79.3707Z" fill="#16A34A"/>
</svg>
